Coordinates
version=1
nRows=19
nColumns=18
inDegrees=no

Units are S.I. units (second, meters, Newtons, ...)
If the header above contains a line with 'inDegrees', this indicates whether rotational values are in degrees (yes) or radians (no).

endheader
time	ground_thorax_rot_x	ground_thorax_rot_y	ground_thorax_rot_z	ground_thorax_tx	ground_thorax_ty	ground_thorax_tz	clav_prot	clav_elev	scapula_abduction	scapula_elevation	scapula_upward_rot	scapula_winging	shoulder_elv	plane_of_elev	axial_rot	elbow_flexion	pro_sup
     15.48000000	      6.46909095	     40.48581100	     -7.11720341	     -2.21682818	     -0.01413278	      0.74973422	     -2.77069075	     -3.36752550	     -3.65390883	     -2.82834586	     10.58782430	      1.05622581	     43.26344892	      5.50211466	      8.95595883	     51.94141684	     -0.36628405
     15.50000000	      6.82799106	     41.39099829	     -7.02053124	     -2.21490634	     -0.01269030	      0.74195207	     -2.79256375	     -3.16400368	     -4.35389357	     -2.28105217	      9.74329467	      1.28581684	     44.26237703	      5.88874465	      8.17265138	     51.29096728	     -0.57563068
     15.52000000	      6.56924239	     41.83315913	     -7.21636549	     -2.19153411	     -0.01424941	      0.73073085	     -2.07886829	     -3.00232627	     -3.69909567	     -1.76387207	      8.92774477	      1.24128490	     44.72182941	      7.70623795	      7.92495406	     51.36833995	     -0.58370596
     15.54000000	      6.40390780	     42.18184816	     -7.02314558	     -2.19358157	     -0.01271460	      0.72548223	     -2.10818037	     -3.07506950	     -3.51988023	     -1.96292923	      9.22904341	      1.17102421	     44.90553122	      8.12758138	      7.87394784	     51.45948132	     -0.58236931
     15.56000000	      6.08839644	     42.47317876	     -7.28887574	     -2.20557933	     -0.01509650	      0.73385332	     -2.11808759	     -3.11912710	     -3.48661602	     -2.02814286	      9.28386904	      1.16665804	     45.13932286	      8.24875259	      7.87017047	     51.19085022	     -0.54533143
     15.58000000	      5.93186442	     42.81676636	     -7.39747292	     -2.18583066	     -0.01904944	      0.72010335	     -2.24352131	     -3.20155705	     -3.31888213	     -2.33133163	      9.80596906	      1.06624072	     45.52587660	      8.76836855	      7.68796591	     51.27559832	     -0.55903227
     15.60000000	      6.01200379	     42.77192746	     -7.13366449	     -2.17635068	     -0.01727190	      0.71350103	     -2.34667715	     -3.52699507	     -3.64022447	     -2.50207372	      9.48354625	      1.28133292	     45.60804137	      8.98039345	      7.26437188	     50.19801956	     -0.47327128
     15.62000000	      5.81011710	     43.04961169	     -7.52837602	     -2.16109811	     -0.02003681	      0.70173838	     -2.31260163	     -3.61428842	     -3.52423410	     -2.60233083	      9.52796048	      1.27419218	     45.54761195	      9.21048769	      7.26879857	     50.29938951	     -0.47161922
     15.64000000	      5.77718604	     43.05914979	     -7.64680332	     -2.13923412	     -0.02208979	      0.69331708	     -2.42787050	     -3.62477835	     -3.53836689	     -2.72796768	      9.79460887	      1.23671236	     45.72616163	      9.43923851	      7.18892392	     50.43944536	     -0.47709660
     15.66000000	      4.72207306	     43.30289103	     -3.22181723	     -2.10560564	     -0.01107353	      0.66569030	     -1.93202516	     -3.67454368	     -4.20157636	     -1.79191744	      7.54158953	      1.76778573	     46.43787153	     11.69971179	      9.61332802	     43.96314330	      0.02512921
     15.68000000	      4.69940424	     44.53828432	     -3.53744197	     -2.11476243	     -0.01143727	      0.66594861	     -2.28866392	     -3.89475367	     -4.81261689	     -1.98604547	      7.49004190	      1.96778559	     47.39657046	     10.89136629	      9.06051049	     43.94032787	     -0.10940064
     15.70000000	      4.01276010	     46.14629647	     -3.93245014	     -2.15370216	     -0.01237211	      0.67857199	     -2.07298377	     -3.75002939	     -4.40165485	     -1.88565982	      7.58594783	      1.82528864	     48.03865595	     10.59495228	      9.27298434	     43.36211332	     -0.06603472
     15.72000000	      4.93070609	     48.06382913	     -3.55317628	     -2.14382226	     -0.00711521	      0.64916176	     -1.93294271	     -4.32495132	     -3.76072278	     -2.58019618	      7.93576828	      1.79077655	     49.65395278	     10.12607264	      8.07628199	     38.29347006	     -0.17060502
     15.74000000	      4.84302963	     48.15215002	     -3.81298681	     -2.12756930	     -0.00826892	      0.64481556	     -1.99115727	     -4.33177303	     -3.73100604	     -2.67153129	      8.12864630	      1.75541802	     49.86411057	     10.28346768	      7.99160439	     38.33177286	     -0.18882429
     15.76000000	      4.76246936	     47.41878468	     -4.42558512	     -2.06978032	     -0.01021832	      0.62158485	     -1.87402499	     -4.40243106	     -3.66389369	     -2.63430261	      7.89449942	      1.79867895	     50.32652460	     11.86715449	      6.89968630	     39.04489422	     -0.25892600
     15.78000000	      4.27421134	     50.24106186	     -4.25523295	     -2.04313309	     -0.01150118	      0.60367722	     -1.71545665	     -4.18320599	     -3.37827233	     -2.46210899	      7.98391608	      1.65618761	     51.53176288	     11.33793853	      5.83971952	     38.67045603	     -0.20976061
     15.80000000	      4.22531376	     50.18696491	     -4.43759217	     -2.03151155	     -0.01319705	      0.60069993	     -1.79295764	     -4.17395005	     -3.45288658	     -2.49682285	      8.08025311	      1.65490759	     51.65572554	     11.28585118	      5.73160140	     38.69814226	     -0.21896594
     15.82000000	      3.34756493	     52.55466349	     -3.89084365	     -2.01917437	     -0.01058671	      0.58985961	     -1.96515893	     -4.39680836	     -3.45577658	     -2.86615498	      8.43863016	      1.66495006	     52.62560397	     10.23832889	      2.47638247	     35.24106245	     -0.54510287
     15.84000000	      3.28138797	     52.60486665	     -4.10100690	     -2.01123443	     -0.01160975	      0.58794262	     -1.96839467	     -4.39482108	     -3.45897132	     -2.86616336	      8.44292676	      1.66437055	     52.64241580	     10.23927203	      2.46759130	     35.25143213	     -0.54723036
